<?xml version="1.0" encoding="iso-8859-1"?>
<!-- Uploaded to: SVG Repo, www.svgrepo.com, Generator: SVG Repo Mixer Tools -->
<svg height="800px" width="800px" version="1.1" id="Layer_1" xmlns="http://www.w3.org/2000/svg" xmlns:xlink="http://www.w3.org/1999/xlink" 
	 viewBox="0 0 512.002 512.002" xml:space="preserve">
<path style="fill:#D5F4FA;" d="M454.873,148.18L268.693,27.044c-7.719-5.021-17.667-5.021-25.384,0L57.129,148.18
	c-6.6,4.295-10.58,11.633-10.58,19.505v297.769c0,12.853,10.42,23.273,23.273,23.273h372.36c12.853,0,23.273-10.42,23.273-23.273
	V167.686C465.455,159.813,461.473,152.473,454.873,148.18z"/>
<path style="fill:#C0FCFF;" d="M454.873,148.18L268.693,27.044c-3.859-2.51-8.276-3.767-12.693-3.767v465.45h186.18
	c12.853,0,23.273-10.42,23.273-23.273V167.686C465.455,159.813,461.473,152.473,454.873,148.18z"/>
<path style="fill:#DA3981;" d="M488.705,221.245c-4.352,0-8.752-1.219-12.671-3.77L256.002,74.313L35.968,217.477
	c-10.769,7.01-25.189,3.961-32.2-6.814c-7.01-10.774-3.958-25.19,6.814-32.2L243.308,27.041c7.719-5.019,17.667-5.019,25.384,0
	l232.725,151.422c10.772,7.01,13.824,21.426,6.814,32.2C503.774,217.515,496.314,221.245,488.705,221.245z"/>
<path style="fill:#B66D38;" d="M488.727,488.727H23.277c-12.853,0-23.273-10.42-23.273-23.273s10.42-23.273,23.273-23.273h465.45
	c12.853,0,23.273,10.42,23.273,23.273S501.58,488.727,488.727,488.727z"/>
<path style="fill:#A91E62;" d="M488.705,221.244c7.609,0,15.068-3.728,19.529-10.581c7.01-10.774,3.958-25.19-6.814-32.2
	L268.695,27.041c-3.859-2.51-8.276-3.765-12.693-3.765v51.038l220.032,143.162C479.953,220.026,484.353,221.244,488.705,221.244z"/>
<path style="fill:#AA3827;" d="M488.727,442.182H256.002v46.545h232.725c12.853,0,23.273-10.42,23.273-23.273
	C512,452.6,501.58,442.182,488.727,442.182z"/>
<path style="fill:#DA3981;" d="M290.673,201.775c-12.154,0-24.194,3.402-34.671,9.531c-10.479-6.127-22.52-9.531-34.674-9.531
	c-36.795,0-65.618,28.822-65.618,65.618c0,40.867,34.698,71.307,74.877,106.556c3.297,2.892,6.637,5.823,9.999,8.795
	c4.402,3.894,9.909,5.84,15.417,5.84c5.508,0,11.016-1.947,15.419-5.84c43.645-38.6,84.869-75.06,84.869-115.351
	C356.291,230.599,327.469,201.775,290.673,201.775z"/>
<path style="fill:#A91E62;" d="M290.673,201.775c-12.154,0-24.194,3.402-34.671,9.531c-0.002,0-0.002,0-0.002,0v177.278h0.003
	c5.508,0,11.016-1.947,15.419-5.84c43.645-38.6,84.869-75.06,84.869-115.351C356.291,230.599,327.469,201.775,290.673,201.775z"/>
</svg>